<?xml version="1.0" encoding="UTF-8" standalone="no"?>
<svg
   xmlns:dc="http://purl.org/dc/elements/1.1/"
   xmlns:cc="http://creativecommons.org/ns#"
   xmlns:rdf="http://www.w3.org/1999/02/22-rdf-syntax-ns#"
   xmlns:svg="http://www.w3.org/2000/svg"
   xmlns="http://www.w3.org/2000/svg"
   xmlns:sodipodi="http://sodipodi.sourceforge.net/DTD/sodipodi-0.dtd"
   xmlns:inkscape="http://www.inkscape.org/namespaces/inkscape"
   width="170.82213mm"
   height="33.720757mm"
   viewBox="0 0 170.82213 33.720757"
   version="1.1"
   id="svg8"
   inkscape:version="0.92.3 (2405546, 2018-03-11)"
   sodipodi:docname="logo.svg">
  <defs
     id="defs2" />
  <sodipodi:namedview
     fit-margin-bottom="0"
     fit-margin-right="0"
     fit-margin-left="0"
     fit-margin-top="0"
     id="base"
     pagecolor="#9f9f9f"
     bordercolor="#666666"
     borderopacity="1.0"
     inkscape:pageopacity="0"
     inkscape:pageshadow="2"
     inkscape:zoom="1.4"
     inkscape:cx="499.20666"
     inkscape:cy="187.33869"
     inkscape:document-units="mm"
     inkscape:current-layer="svg8"
     inkscape:document-rotation="0"
     showgrid="false"
     inkscape:window-width="1680"
     inkscape:window-height="985"
     inkscape:window-x="0"
     inkscape:window-y="39"
     inkscape:window-maximized="1" />
  <metadata
     id="metadata5">
    <rdf:RDF>
      <cc:Work
         rdf:about="">
        <dc:format>image/svg+xml</dc:format>
        <dc:type
           rdf:resource="http://purl.org/dc/dcmitype/StillImage" />
        <dc:title></dc:title>
      </cc:Work>
    </rdf:RDF>
  </metadata>
  <!-- Generator: Sketch 60.1 (88133) - https://sketch.com -->
  <desc
     id="desc13">Created with Sketch.</desc>
  <g
     id="g999">
    <g
       transform="translate(-70,-70)"
       id="08120fa8-e224-4690-94b9-cd186ad8e619"
       style="fill:none;fill-rule:evenodd;stroke:none;stroke-width:1">
      <g
         transform="translate(70,70)"
         id="7ffb0b10-326a-4408-b2c0-2651cc8c20af">
        <polygon
           points="71.39627,18.04577 71.39627,15.695648 67.723177,15.695648 67.723177,13.379805 72.407439,13.379805 72.407439,11.029054 64.942857,11.029054 64.942857,22.812048 67.723177,22.812048 67.723177,18.04577 "
           id="94224ce9-0e63-4d0a-a2b0-62d2f7ce4095"
           style="fill:#ffffff" />
        <polygon
           points="86.136598,13.379805 81.284151,13.379805 81.284151,15.695648 85.293535,15.695648 85.293535,18.04577 81.284151,18.04577 81.284151,20.462521 86.271622,20.462521 86.271622,22.813271 78.502678,22.813271 78.502678,11.029054 86.136598,11.029054 "
           id="16cf1c94-431f-4691-b64c-ffa10bafc5cb"
           style="fill:#ffffff"
           transform="translate(-0.52916667)" />
        <path
           id="cafe8ab9-19c3-468b-8a6b-5391b2ff9bbe"
           d="m 94.618015,16.618981 c 2.207393,0.167906 2.96583,-0.571309 2.96583,-1.729564 0,-1.006655 -0.960929,-1.728934 -2.96583,-1.4433 z m 3.960101,1.577962 2.814264,4.616162 H 98.022172 L 95.881463,18.98563 c -0.403767,0.03324 -0.808146,0.03324 -1.263448,0.03324 v 3.794237 h -2.780321 v -11.6666 c 5.897721,-1.006691 8.610726,0.789277 8.610726,3.793641 0,1.494662 -0.943937,2.719323 -1.870304,3.256797 z"
           inkscape:connector-curvature="0"
           style="fill:#ffffff" />
        <polygon
           points="119.54285,22.813271 116.79692,22.813271 116.79692,17.138762 113.88109,20.664258 113.69577,20.664258 110.7805,17.223067 110.7805,22.813271 108.01679,22.813271 108.01679,11.029053 108.74145,10.861518 113.79701,16.635119 118.81818,10.861518 119.54285,11.029053 "
           id="3e0ff181-71fb-4646-8c82-abfd89774778"
           style="fill:#ffffff"
           transform="translate(-1.0583333)" />
        <path
           id="b30f8051-df2a-40d5-bc4e-643f3d71eec4"
           d="m 128.8188,19.103398 h 2.46022 l -1.23012,-2.887192 z m -4.76822,3.709707 5.52726,-11.885201 h 0.9767 l 5.47697,11.885201 h -3.08406 l -0.6572,-1.426993 h -4.46572 l -0.65718,1.426993 z"
           inkscape:connector-curvature="0"
           style="fill:#ffffff" />
        <polygon
           points="143.71426,13.379173 143.71426,11.029054 152.74657,11.029054 152.74657,13.379173 149.61227,13.379173 149.61227,22.813271 146.832,22.813271 146.832,13.379173 "
           id="54845400-b995-4981-9b3b-1101a7450e9d"
           style="fill:#ffffff"
           transform="translate(-4.7625002)" />
        <path
           id="352f0b2c-f9db-4be6-8618-ec05ad9e181f"
           d="m 157.43177,16.215577 1.23071,2.887821 h -2.46083 z m -0.47106,-5.287673 -5.52729,11.884013 h 3.11678 l 0.6572,-1.425805 h 4.46633 l 0.65657,1.425805 h 3.08345 l -5.47636,-11.884013 z"
           inkscape:connector-curvature="0"
           style="fill:#ffffff" />
        <g
           id="2ba423eb-f3d4-4758-9c54-b6f5d2e048db">
          <path
             id="816fe8b3-b427-4085-9a35-2daf1c3d857b"
             d="m 23.819383,33.720201 c -1.930935,0 -3.630303,-1.007323 -4.595444,-2.522475 -0.965178,1.515152 -2.664546,2.522475 -4.595477,2.522475 -2.731197,0 -4.9980102,-2.016461 -5.3805626,-4.632503 C 6.8774187,28.744699 4.9974065,26.871426 4.6524465,24.510187 2.0249082,24.129129 0,21.870576 0,19.149422 0,18.359551 0.17642362,17.576904 0.5128899,16.860685 0.17642362,16.145076 0,15.362429 0,14.57193 0,11.850794 2.0243017,9.5916277 4.6518339,9.2111798 4.9974065,6.8499618 6.8774187,4.9766893 9.2473021,4.6336536 9.6304518,2.0169984 11.897862,0 14.628462,0 16.559393,0 18.258761,1.0078784 19.223939,2.5230489 20.18908,1.0078784 21.888448,0 23.819383,0 c 2.731212,0 4.999238,2.0164064 5.380562,4.6336536 2.371706,0.3430357 4.251097,2.2163082 4.596075,4.5775262 2.627529,0.3810581 4.65184,2.6396142 4.65184,5.3607502 0,0.789889 -0.175799,1.572533 -0.51289,2.288755 0.337091,0.716832 0.51289,1.499476 0.51289,2.288737 0,2.721154 -2.024311,4.979707 -4.65184,5.360765 -0.344978,2.361239 -2.224982,4.234512 -4.595462,4.577511 -0.381937,2.616674 -2.649963,4.632503 -5.381175,4.632503 z M 20.06663,28.30446 c 0,2.060485 1.683593,3.737465 3.752753,3.737465 2.069159,0 3.75214,-1.67698 3.75214,-3.737465 v -0.838786 h 0.842725 c 2.069159,0 3.752752,-1.677609 3.752752,-3.738722 v -0.83879 h 0.842691 c 2.069178,0 3.753369,-1.677644 3.753369,-3.73874 0,-0.652168 -0.17582,-1.29835 -0.506828,-1.868418 l -0.244922,-0.420319 0.244922,-0.420301 c 0.331008,-0.570067 0.506828,-1.216249 0.506828,-1.868454 0,-2.061096 -1.683596,-3.738094 -3.752756,-3.738094 H 32.167616 V 9.9944184 C 32.167,7.9333414 30.484023,6.2563248 28.414863,6.2563248 H 27.572136 V 5.4169286 c -6.13e-4,-2.0610952 -1.683594,-3.7387068 -3.752753,-3.7387068 -2.06916,0 -3.752753,1.6776116 -3.752753,3.7387068 h -1.685416 c 0,-2.0610952 -1.683556,-3.7387068 -3.752752,-3.7387068 -2.068547,0 -3.751528,1.6776116 -3.751528,3.7387068 v 0.8393962 h -0.842727 c -2.069148,0 -3.7527441,1.6770166 -3.7527441,3.7380936 V 10.833836 H 5.4387657 c -2.0697813,0 -3.7527619,1.676998 -3.7527619,3.738094 0,0.652815 0.1746072,1.29896 0.5056274,1.868454 l 0.2443155,0.420301 -0.2443155,0.420319 c -0.3310202,0.569457 -0.5056274,1.215621 -0.5056274,1.868418 0,2.061096 1.6829806,3.73874 3.751552,3.73874 h 0.8420846 l 6.156e-4,0.838195 c 6.126e-4,2.061708 1.6841874,3.739317 3.752762,3.739317 h 0.842094 l 5.94e-4,0.838157 c 6.16e-4,2.061114 1.684209,3.738094 3.752756,3.738094 2.069196,0 3.752752,-1.67698 3.752752,-3.737465 z"
             inkscape:connector-curvature="0"
             style="fill:#1a1818" />
          <path
             id="78c665e3-0dfc-495f-a34c-317f5c5bf38b"
             d="m 14.628462,33.720737 c -2.731197,0 -4.9986167,-2.016385 -5.3805626,-4.63365 C 6.8768152,28.744051 4.9974065,26.870778 4.6524465,24.509575 2.0249082,24.128557 0,21.869964 0,19.148829 0,18.358957 0.17642362,17.576274 0.51228648,16.860073 0.17642362,16.145056 0,15.362413 0,14.571318 0,11.850182 2.0243017,9.5916262 4.6518339,9.2111631 4.9974065,6.8499512 6.8774187,4.9766787 9.2473021,4.6336429 9.6304518,2.0169878 11.897862,5.84375e-4 14.628462,5.84375e-4 c 2.998586,0 5.438168,2.430071125 5.438168,5.416333525 V 28.303811 c 0,2.987468 -2.439582,5.416926 -5.438168,5.416926 z M 5.4387657,10.833816 c -2.0697813,0 -3.7527619,1.676425 -3.7527619,3.737502 0,0.653428 0.1746072,1.298997 0.5056274,1.867823 l 0.2443155,0.420932 -0.2443155,0.420301 c -0.3310202,0.569494 -0.5056274,1.215658 -0.5056274,1.868455 0,2.061077 1.6829806,3.738685 3.751552,3.738685 h 0.8420846 l 6.156e-4,0.838194 c 6.126e-4,2.061706 1.6841874,3.739317 3.752762,3.739317 h 0.842094 l 5.94e-4,0.838195 c 6.16e-4,2.061705 1.684209,3.739316 3.752756,3.739316 2.069196,0 3.752752,-1.677611 3.752752,-3.738725 V 5.4169179 c 0,-2.0610951 -1.683556,-3.7380935 -3.752752,-3.7380935 -2.068547,0 -3.751528,1.6769984 -3.751528,3.7380935 v 0.8393993 h -0.842727 c -2.069148,0 -3.7527441,1.6770166 -3.7527441,3.7380845 v 0.8394143 z"
             inkscape:connector-curvature="0"
             style="fill:#ffffff" />
          <polygon
             points="9.4368015,27.710037 12.024931,25.133197 13.216765,26.320919 10.628635,28.897759 "
             id="5e1a30aa-26dd-4fe4-b74c-282e25fad8e4"
             style="fill:#ffffff" />
          <polygon
             points="9.4377006,6.0102756 10.629186,4.823445 12.378601,6.5660269 11.155961,7.7218244 "
             id="3535c39d-5cc0-45a4-87ff-baae29d88a05"
             style="fill:#ffffff" />
          <path
             id="7373a931-d747-4dd1-bf9e-7b18df02d77d"
             d="m 13.162508,11.493274 c -1.638113,0 -2.971279,-1.327363 -2.971279,-2.9590805 0,-1.6317146 1.333166,-2.9590594 2.971279,-2.9590594 1.638114,0 2.971895,1.3273448 2.971895,2.9590594 0,1.6317175 -1.333781,2.9590805 -2.971895,2.9590805 z m 0,-4.2399364 c -0.709318,0 -1.285882,0.5749006 -1.285882,1.2808559 0,0.7059584 0.576564,1.280859 1.285882,1.280859 0.709337,0 1.285882,-0.5749006 1.285882,-1.280859 0,-0.7059553 -0.576545,-1.2808559 -1.285882,-1.2808559 z"
             inkscape:connector-curvature="0"
             style="fill:#ffffff" />
          <path
             id="106ed566-b917-40cd-a425-65f67c07ffcf"
             d="m 10.870249,20.674265 c -2.1116067,0 -3.8291412,-1.710203 -3.8291412,-3.81358 0,-1.019365 0.3983086,-1.977142 1.1215787,-2.696995 l 1.1913051,1.187866 c -0.4049767,0.40279 -0.6274834,0.938451 -0.6274834,1.509129 0,1.176968 0.9615329,2.134781 2.1437408,2.134781 1.181007,0 2.141925,-0.957813 2.141925,-2.134781 v -0.839399 h 6.211757 v 1.678813 h -4.619718 c -0.384969,1.70055 -1.91274,2.974166 -3.733964,2.974166 z"
             inkscape:connector-curvature="0"
             style="fill:#ffffff" />
          <path
             id="0a7897eb-3edf-46a9-9fb2-05ad0742b2a3"
             d="m 23.819389,33.720757 c -2.998549,0 -5.438171,-2.429461 -5.438171,-5.416926 V 5.4169286 C 18.381218,2.4300559 20.82084,0 23.819389,0 c 2.731212,0 4.999235,2.0164064 5.380559,4.6336536 2.371709,0.3430357 4.2511,2.2163082 4.596075,4.5775262 2.627532,0.3810581 4.651843,2.6396142 4.651843,5.3607502 0,0.789889 -0.175799,1.572533 -0.51289,2.288755 0.337091,0.716219 0.51289,1.498866 0.51289,2.288737 0,2.721154 -2.024311,4.979707 -4.651843,5.360173 -0.344975,2.361203 -2.224982,4.234472 -4.595459,4.577511 -0.38194,2.617266 -2.649963,4.633651 -5.381175,4.633651 z m 0,-32.0425352 c -2.06916,0 -3.752756,1.6776116 -3.752756,3.7387068 V 28.303831 c 0,2.061114 1.683596,3.738722 3.752756,3.738722 2.069156,0 3.752137,-1.677608 3.752137,-3.738722 v -0.838786 h 0.842728 c 2.069159,0 3.752752,-1.677611 3.752752,-3.738688 v -0.838823 h 0.842692 c 2.069177,0 3.753365,-1.677016 3.753365,-3.738112 0,-0.652797 -0.175817,-1.29835 -0.506213,-1.867826 l -0.245534,-0.420911 0.244922,-0.420301 c 0.331008,-0.570067 0.506825,-1.216249 0.506825,-1.868454 0,-2.061096 -1.683593,-3.738094 -3.752753,-3.738094 H 32.167619 V 9.9944184 C 32.167006,7.9333414 30.484026,6.2563248 28.414866,6.2563248 H 27.572142 V 5.4169286 C 27.571526,3.3558334 25.888545,1.6782218 23.819389,1.6782218 Z"
             inkscape:connector-curvature="0"
             style="fill:#ffffff" />
          <polygon
             points="25.231483,7.4016854 27.818712,4.8232514 29.010501,6.0097812 26.423272,8.5882152 "
             id="7ae30d9d-5c5e-4ba9-bde7-9fd50795fc3d"
             style="fill:#ffffff" />
          <polygon
             points="25.231262,26.320324 26.422779,25.133462 29.01006,27.710636 27.818543,28.897498 "
             id="94aaf9aa-bd2a-4105-ad6b-e2db84d92d9d"
             style="fill:#ffffff" />
          <polygon
             points="30.12708,11.679533 32.413661,9.4008412 33.605434,10.587415 31.318852,12.866108 "
             id="4faaa353-c36d-4187-ad21-20b0d9a4e5e1"
             style="fill:#ffffff" />
          <polygon
             points="31.013853,22.925193 32.205353,21.738347 33.605559,23.133083 32.414058,24.319929 "
             id="390b68d7-bc21-4432-ac18-cf6f2cb2fc1d"
             style="fill:#ffffff" />
          <polygon
             points="30.529739,16.021565 36.985449,16.021565 36.985449,17.699965 30.529739,17.699965 "
             id="16ae737b-ab4f-49aa-8ffe-6e332d051701"
             style="fill:#ffffff" />
          <path
             id="9f376b8b-8c40-4939-8401-d70f8deef028"
             d="m 29.456593,17.891305 c 0.172912,-0.311793 0.264759,-0.663993 0.264759,-1.030639 0,-1.176986 -0.961533,-2.135358 -2.143138,-2.135358 -1.181623,0 -2.143134,0.958372 -2.143134,2.135358 v 0.839418 H 19.223938 V 16.02127 h 4.619084 c 0.384987,-1.700568 1.913374,-2.974184 3.735192,-2.974184 2.110994,0 3.828535,1.710832 3.828535,3.81358 0,0.776484 -0.231393,1.517535 -0.661415,2.144529 -0.134181,0.195643 -1.384963,-0.940382 -1.288741,-1.11389 z"
             inkscape:connector-curvature="0"
             style="fill:#ffffff" />
          <path
             id="e636de03-25ef-443b-bfc7-5153beeff253"
             d="m 9.600765,16.876989 c -1.6381227,0 -2.9712793,-1.327345 -2.9712793,-2.959673 0,-1.631714 1.3331566,-2.958488 2.9712793,-2.958488 1.638114,0 2.971895,1.326774 2.971895,2.958488 0,1.632328 -1.333781,2.959673 -2.971895,2.959673 z m 0,-4.239918 c -0.7093181,0 -1.2858728,0.57429 -1.2858728,1.280245 0,0.706548 0.5765547,1.28147 1.2858728,1.28147 0.709339,0 1.285882,-0.574922 1.285882,-1.28147 0,-0.705955 -0.576543,-1.280245 -1.285882,-1.280245 z"
             inkscape:connector-curvature="0"
             style="fill:#ffffff" />
          <path
             id="8b1a06ab-8183-482b-b7b6-f02b3ac0de45"
             d="m 28.809524,22.362751 c -1.638114,0 -2.970682,-1.327348 -2.970682,-2.959673 0,-1.631754 1.332568,-2.958489 2.970682,-2.958489 1.638729,0 2.9713,1.326735 2.9713,2.958489 0,1.632325 -1.332571,2.959673 -2.9713,2.959673 z m 0,-4.23994 c -0.708724,0 -1.285267,0.574312 -1.285267,1.280267 0,0.706529 0.576543,1.281469 1.285267,1.281469 0.709321,0 1.285882,-0.57494 1.285882,-1.281469 0,-0.705955 -0.576561,-1.280267 -1.285882,-1.280267 z"
             inkscape:connector-curvature="0"
             style="fill:#ffffff" />
          <path
             id="1f495fe5-838c-4ca1-8a6a-ca466ea4ec70"
             d="m 24.627549,27.022379 c -1.638114,0 -2.971279,-1.327348 -2.971279,-2.959081 0,-1.631733 1.333165,-2.959081 2.971279,-2.959081 1.638113,0 2.971297,1.327348 2.971297,2.959081 0,1.631733 -1.333184,2.959081 -2.971297,2.959081 z m 0,-4.239327 c -0.708724,0 -1.285882,0.574309 -1.285882,1.280246 0,0.705937 0.577158,1.280877 1.285882,1.280877 0.708724,0 1.285882,-0.57494 1.285882,-1.280877 0,-0.705937 -0.577158,-1.280246 -1.285882,-1.280246 z"
             inkscape:connector-curvature="0"
             style="fill:#ffffff" />
          <path
             id="28a4a172-c4d8-4889-907c-bbfbe6336b4a"
             d="m 24.627549,11.493274 c -1.638114,0 -2.971279,-1.327363 -2.971279,-2.9590805 0,-1.6317146 1.333165,-2.9590594 2.971279,-2.9590594 1.638113,0 2.971297,1.3273448 2.971297,2.9590594 0,1.6317175 -1.333184,2.9590805 -2.971297,2.9590805 z m 0,-4.2399364 c -0.708724,0 -1.285882,0.5749006 -1.285882,1.2808559 0,0.7059584 0.577158,1.280859 1.285882,1.280859 0.708724,0 1.285882,-0.5749006 1.285882,-1.280859 0,-0.7059553 -0.577158,-1.2808559 -1.285882,-1.2808559 z"
             inkscape:connector-curvature="0"
             style="fill:#ffffff" />
          <path
             id="ee3e2139-9450-477e-bffb-a5ace884ff94"
             d="m 12.620558,27.022379 c -1.638114,0 -2.9712887,-1.327348 -2.9712887,-2.959081 0,-1.631733 1.3331747,-2.959081 2.9712887,-2.959081 1.638113,0 2.971279,1.327348 2.971279,2.959081 0,1.631733 -1.333166,2.959081 -2.971279,2.959081 z m 0,-4.239327 c -0.708724,0 -1.28527,0.574309 -1.28527,1.280246 0,0.705937 0.576546,1.280877 1.28527,1.280877 0.709318,0 1.285882,-0.57494 1.285882,-1.280877 0,-0.705937 -0.576564,-1.280246 -1.285882,-1.280246 z"
             inkscape:connector-curvature="0"
             style="fill:#ffffff" />
          <polygon
             points="4.8418987,23.132564 7.1292247,20.855215 8.3210592,22.042938 6.0337332,24.320287 "
             id="23607ce7-97b6-45fe-904b-ca4533f8bc8c"
             style="fill:#ffffff" />
          <polygon
             points="4.8421958,10.587842 6.033711,9.4009812 7.4339014,10.795702 6.2423862,11.982563 "
             id="7c3e35b8-7144-406a-a9ea-f9d0bd179b57"
             style="fill:#ffffff" />
          <polygon
             points="1.4622872,16.021565 7.9180547,16.021565 7.9180547,17.699965 1.4622872,17.699965 "
             id="366e0d85-7b25-4dff-9d81-555c2f4bfd0d"
             style="fill:#ffffff" />
        </g>
      </g>
    </g>
  </g>
</svg>
